<svg xmlns="http://www.w3.org/2000/svg" viewBox="0 0 3.49 32.26"><defs><style>.cls-1{fill:#8dc3c3;}</style></defs><title>noticeItem</title><g id="Layer_2" data-name="Layer 2"><g id="Layer_1-2" data-name="Layer 1"><path id="Path_648" data-name="Path 648" class="cls-1" d="M1.82,23.15a.92.92,0,0,0,1-.84v-.15L2.89,1.07A1,1,0,0,0,1.94,0H1.82A1,1,0,0,0,.76,1v.12L.84,22.16A.88.88,0,0,0,1.82,23.15Zm-.07,9.11a1.73,1.73,0,0,0,1.74-1.7v0A1.72,1.72,0,0,0,1.8,28.76H1.75A1.78,1.78,0,0,0,0,30.51a1.82,1.82,0,0,0,1.75,1.74Z"/></g></g></svg>