<svg xmlns="http://www.w3.org/2000/svg" viewBox="0 0 41.98 31.16"><defs><style>.cls-1{fill:none;stroke:#000;stroke-linecap:round;stroke-linejoin:round;stroke-width:2px;}</style></defs><title>praise</title><g id="Layer_2" data-name="Layer 2"><g id="Layer_1-2" data-name="Layer 1"><g id="line"><line id="Line_2" data-name="Line 2" class="cls-1" x1="11.98" y1="13.52" x2="11.98" y2="4.49"/><line id="Line_3" data-name="Line 3" class="cls-1" x1="29.92" y1="14.81" x2="29.92" y2="4.49"/><path id="Path_651" data-name="Path 651" class="cls-1" d="M33.8,14,33.73,3.41v.43a1.91,1.91,0,0,1,2.13-1.62,1.88,1.88,0,0,1,1.69,2,.2.2,0,0,0,0,.07V8l.07,7V6.85C37.61,5.06,41,5,41,7.28V21.05a9.2,9.2,0,0,1-9.42,9,9.19,9.19,0,0,1-9.34-9c0-1.73-.15-4.66-.15-8.68,1.27-1.22,3.37.43,4,2.08V4.13c0-2.08,3.88-2.22,3.88.36V2.84c0-2.22,3.81-3,3.81,1"/><line id="Line_4" data-name="Line 4" class="cls-1" x1="29.92" y1="14.81" x2="29.92" y2="4.49"/><line id="Line_5" data-name="Line 5" class="cls-1" x1="11.98" y1="14.81" x2="11.98" y2="4.49"/><path id="Path_654" data-name="Path 654" class="cls-1" d="M8.1,14,8.17,3.41v.44A1.89,1.89,0,0,0,6,2.23a1.87,1.87,0,0,0-1.69,2,.22.22,0,0,1,0,.08V8l-.07,7,.07-8C4.36,5.21,1,5.14,1,7.43V21.2a9.21,9.21,0,0,0,9.42,9,9.2,9.2,0,0,0,9.34-9c0-1.72.14-4.66.14-8.67-1.26-1.22-3.36.43-4,2.08V4.27c0-2.08-3.89-2.22-3.89.36V3C12,.76,8.17,0,8.17,4"/></g></g></g></svg>