<svg xmlns="http://www.w3.org/2000/svg" viewBox="0 0 48.93 37.67"><defs><style>.cls-1{fill:none;stroke:#8dc3c3;stroke-linecap:round;stroke-linejoin:round;stroke-width:2px;}</style></defs><title>praiseItem</title><g id="Layer_2" data-name="Layer 2"><g id="Layer_1-2" data-name="Layer 1"><line id="Line_2" data-name="Line 2" class="cls-1" x1="13.89" y1="16.32" x2="13.89" y2="5.27"/><line id="Line_3" data-name="Line 3" class="cls-1" x1="34.94" y1="17.9" x2="34.94" y2="5.27"/><path id="Path_651" data-name="Path 651" class="cls-1" d="M39.51,16.84,39.42,4v.53A2.26,2.26,0,1,1,43.9,5s0,.06,0,.09V9.56L44,18.07V8.16c0-2.19,4-2.28,4,.53V25.53a11,11,0,0,1-22-.09c0-2.11-.17-5.7-.17-10.61,1.48-1.49,3.94.52,4.73,2.54V4.83c0-2.55,4.56-2.72,4.56.43v-2c0-2.72,4.48-3.69,4.48,1.23"/><line id="Line_4" data-name="Line 4" class="cls-1" x1="34.94" y1="17.9" x2="34.94" y2="5.27"/><line id="Line_5" data-name="Line 5" class="cls-1" x1="13.89" y1="17.9" x2="13.89" y2="5.27"/><path id="Path_654" data-name="Path 654" class="cls-1" d="M9.33,16.85,9.42,4v.53A2.26,2.26,0,1,0,4.94,5a.25.25,0,0,0,0,.08V9.57l-.09,8.51L5,8.34C5,6.15,1,6.06,1,8.87V25.71a11,11,0,0,0,22-.09c0-2.11.17-5.71.17-10.62-1.49-1.49-4,.53-4.74,2.55V5c0-2.54-4.56-2.71-4.56.44v-2c0-2.72-4.47-3.69-4.47,1.23"/></g></g></svg>