<svg xmlns="http://www.w3.org/2000/svg" viewBox="0 0 43.13 42.36"><defs><style>.cls-1{fill:none;stroke:#8dc3c3;stroke-linecap:round;stroke-linejoin:round;stroke-width:2px;}</style></defs><title>prayItem</title><g id="Layer_2" data-name="Layer 2"><g id="Layer_1-2" data-name="Layer 1"><path id="Path_655" data-name="Path 655" class="cls-1" d="M15.5,41.36H1V33.89l9.44-4.77c-1.59,5.47,4.67,9.34,7.84,7.47Z"/><path id="Path_656" data-name="Path 656" class="cls-1" d="M17.19,37c0-.4,1.4-2.39,1.89-2.39s2.49-1,2.49-2.28v-30a1.67,1.67,0,0,0-2-1.27,1.65,1.65,0,0,0-1.3,1.47L16.6,13.93c-.3,1.89-1.09,1.89-1.39,3.68-.4,3.58-.8,9.84-5,12.42"/><path id="Path_657" data-name="Path 657" class="cls-1" d="M27.53,41.36h14.6V33.89l-9.44-4.75c1.59,5.46-4.67,9.34-7.85,7.47Z"/><path id="Path_658" data-name="Path 658" class="cls-1" d="M25.84,37c0-.4-1.4-2.39-1.89-2.39s-2.48-1-2.48-2.28v-30a1.66,1.66,0,0,1,3.27.2l1.69,11.42c.3,1.89,1.09,1.89,1.39,3.68.4,3.58.8,9.84,5,12.42"/></g></g></svg>