<svg xmlns="http://www.w3.org/2000/svg" viewBox="0 0 31.79 31.16"><defs><style>.cls-1{fill:none;stroke:#000;stroke-linecap:round;stroke-linejoin:round;stroke-width:2px;}</style></defs><title>pray</title><g id="Layer_2" data-name="Layer 2"><g id="Layer_1-2" data-name="Layer 1"><g id="line"><path id="Path_643" data-name="Path 643" class="cls-1" d="M11.55,30.16H1V24.77l6.82-3.44c-1.15,4,3.37,6.75,5.67,5.38Z"/><path id="Path_644" data-name="Path 644" class="cls-1" d="M12.7,27c0-.29,1-1.72,1.36-1.72s1.8-.72,1.8-1.65V2a1.2,1.2,0,0,0-2.37.14l-1.22,8.26c-.22,1.36-.79,1.36-1,2.65-.29,2.59-.58,7.11-3.59,9"/><path id="Path_645" data-name="Path 645" class="cls-1" d="M20.24,30.16H30.79V24.77L24,21.33c1.15,4-3.38,6.75-5.67,5.38Z"/><path id="Path_646" data-name="Path 646" class="cls-1" d="M19,27c0-.29-1-1.72-1.36-1.72s-1.79-.72-1.79-1.65V2a1.2,1.2,0,0,1,2.37.14l1.22,8.26c.21,1.36.79,1.36,1,2.65.28,2.59.57,7.11,3.58,9"/></g></g></g></svg>