<svg xmlns="http://www.w3.org/2000/svg" viewBox="0 0 41 41"><defs><style>.cls-1{fill:#fff;stroke:#000;stroke-miterlimit:10;}.cls-2{fill:#8dc3c3;}</style></defs><title>time</title><g id="Layer_2" data-name="Layer 2"><g id="Layer_1-2" data-name="Layer 1"><circle id="Ellipse_140" data-name="Ellipse 140" class="cls-1" cx="20.5" cy="20.5" r="20"/><g id="Regular-M"><path class="cls-2" d="M14.82,15.91a.4.4,0,0,0,.3-.1l2.47-1.87a.43.43,0,0,0,.19-.33.52.52,0,0,0-.2-.4,2,2,0,0,0-1.23-.39,2.07,2.07,0,0,0-2.08,2.08,1.8,1.8,0,0,0,.13.71A.45.45,0,0,0,14.82,15.91Zm12.15,0a.49.49,0,0,0,.43-.3,2,2,0,0,0,.12-.71,2.07,2.07,0,0,0-2.08-2.08,2,2,0,0,0-1.23.39.52.52,0,0,0-.2.4.43.43,0,0,0,.19.33l2.47,1.87A.42.42,0,0,0,27,15.91ZM14.71,28a.55.55,0,0,0,.81,0l1.17-1.16a7.06,7.06,0,0,0,8.41,0l1.17,1.16a.56.56,0,1,0,.8-.79L26,26a7.08,7.08,0,1,0-10.11,0l-1.12,1.12A.56.56,0,0,0,14.71,28Zm2.82-6.05a.5.5,0,0,1-.51-.51.51.51,0,0,1,.51-.51h2.85v-4a.51.51,0,0,1,.51-.52.52.52,0,0,1,.52.52v4.48a.51.51,0,0,1-.52.51Z"/></g></g></g></svg>